{"title":"Raatporir Rupkatha 2007 Kolkata Bengali Movie x264 AAC (300MB) T","uid":12206473,"size":319924547,"categoryP":"video","categoryS":"movies","magnet":"?xt=urn:btih:e8790f3ed506272bc14096cadb1b93f4d39f0d13&amp;dn=Raatporir+Rupkatha+2007+Kolkata+Bengali+Movie+x264+AAC+%28300MB%29+T&amp;tr=udp%3A%2F%2Ftracker.openbittorrent.com%3A80&amp;tr=udp%3A%2F%2Fopen.demonii.com%3A1337&amp;tr=udp%3A%2F%2Ftracker.coppersurfer.tk%3A6969&amp;tr=udp%3A%2F%2Fexodus.desync.com%3A6969","seeders":0,"leechers":0,"uploader":null,"files":1,"time":1438973076,"description":"Director: Sanghamitra Chowdhury\nMusic: Debasish Chowdhury\nMain Cast: Jackie Shroff, Indrani Haldar, Rudranil Ghosh, Abir Goswami...  more\nGenre: Drama\nBanner: Global Media Entertainment\nRelease: 200\n\n(Story)\nRaatporir Rupkatha is a film revolving around the life of a sex worker, Rajani (Indrani Halder). Rajani's little daughter, Sabita is everything to her and the only inspiration to live her wretched life of a prostitute. She dreams that her daughter would study a lot, get a decent job and take her out of the dungeon. Kamal Babu (Jackie Shroff) one of her customers is the love of her life.He assures her to admit Sabita in a school. However currupted govt. supplier Nilu (Rudranil Ghosh)salls Sabita to a paedophile. Kamal babu is afraid to tell the truth to Rajani. After a long time Kamal Babu's own daughter returns from abroad and Rajani mistakenly thinks her as her own daughter. Sabita, on the hands becomes a sophisticated escort and falls far a young student Saheb Khan.Rajani's dream shatters when Sabita comes to the pros -quarter as a new tenant and Rajani recognizes her by an old work on her hand. However Sabita is able to remember the person who sold her and and Nilu is eventually murdered by Kamalbabu. Saheb Khan,who has become a police inspector helps Kamalbabu in this case and he is aquitted as no witness is found.The film ends with a happy mood, when Rajani leaves the pros-quarter with her old friends, Kamalbabu,Sabita and Dia\n\nComplete name               : Raatporir Rupkatha 2007.mp4\nFormat                      : MPEG-4\nFormat profile              : Base Media / Version 2\nCodec ID                    : mp42\nFile size                   : 305 MiB\nDuration                    : 1h 55mn\nOverall bit rate mode       : Variable\nOverall bit rate            : 369 Kbps\nEncoded date                : UTC 2015-07-23 09:33:21\nTagged date                 : UTC 2015-07-23 09:33:21\ngsst                        : 0\ngstd                        : 6938446\ngssd                        : B4A7DD4C7MM1438437654934843\ngshh                        : r7---sn-jc47eu7k.googlevideo.com\n\nVideo\nID                          : 1\nFormat                      : AVC\nFormat/Info                 : Advanced Video Codec\nFormat profile              : Baseline@L3\nFormat settings, CABAC      : No\nFormat settings, ReFrames   : 1 frame\nCodec ID                    : avc1\nCodec ID/Info               : Advanced Video Coding\nDuration                    : 1h 55mn\nBit rate                    : 270 Kbps\nMaximum bit rate            : 1 426 Kbps\nWidth                       : 480 pixels\nHeight                      : 360 pixels\nDisplay aspect ratio        : 4:3\nFrame rate mode             : Constant\nFrame rate                  : 29.970 fps\nColor space                 : YUV\nChroma subsampling          : 4:2:0\nBit depth                   : 8 bits\nScan type                   : Progressive\nBits/(Pixel*Frame)          : 0.052\nStream size                 : 224 MiB (73%)\nTagged date                 : UTC 2015-07-23 09:34:08\n\nAudio\nID                          : 2\nFormat                      : AAC\nFormat/Info                 : Advanced Audio Codec\nFormat profile              : LC\nCodec ID                    : 40\nDuration                    : 1h 55mn\nBit rate mode               : Variable\nBit rate                    : 96.0 Kbps\nMaximum bit rate            : 101 Kbps\nChannel(s)                  : 2 channels\nChannel positions           : Front: L R\nSampling rate               : 44.1 KHz\nCompression mode            : Lossy\nStream size                 : 79.4 MiB (26%)\nTitle                       : IsoMedia File Produced by Google, 5","torrent":{"xt":"urn:btih:e8790f3ed506272bc14096cadb1b93f4d39f0d13","amp;dn":"Raatporir+Rupkatha+2007+Kolkata+Bengali+Movie+x264+AAC+%28300MB%29+T","amp;tr":["udp%3A%2F%2Ftracker.openbittorrent.com%3A80","udp%3A%2F%2Fopen.demonii.com%3A1337","udp%3A%2F%2Ftracker.coppersurfer.tk%3A6969","udp%3A%2F%2Fexodus.desync.com%3A6969"],"infoHash":"e8790f3ed506272bc14096cadb1b93f4d39f0d13","infoHashBuffer":{"type":"Buffer","data":[232,121,15,62,213,6,39,43,193,64,150,202,219,27,147,244,211,159,13,19]},"announce":[],"urlList":[]}}